<?xml version="1.0" encoding="UTF-8" standalone="no"?>
<!-- Created with Inkscape (http://www.inkscape.org/) -->

<svg
   width="53.830677mm"
   height="63.403061mm"
   viewBox="0 0 53.830677 63.403061"
   version="1.1"
   id="svg17161"
   inkscape:version="1.2.2 (b0a84865, 2022-12-01)"
   sodipodi:docname="phase-transformation-scheme.svg"
   xmlns:inkscape="http://www.inkscape.org/namespaces/inkscape"
   xmlns:sodipodi="http://sodipodi.sourceforge.net/DTD/sodipodi-0.dtd"
   xmlns:xlink="http://www.w3.org/1999/xlink"
   xmlns="http://www.w3.org/2000/svg"
   xmlns:svg="http://www.w3.org/2000/svg">
  <sodipodi:namedview
     id="namedview17163"
     pagecolor="#ffffff"
     bordercolor="#000000"
     borderopacity="0.25"
     inkscape:showpageshadow="2"
     inkscape:pageopacity="0.0"
     inkscape:pagecheckerboard="0"
     inkscape:deskcolor="#d1d1d1"
     inkscape:document-units="mm"
     showgrid="false"
     inkscape:zoom="1.6757355"
     inkscape:cx="355.06797"
     inkscape:cy="175.44535"
     inkscape:current-layer="layer1" />
  <defs
     id="defs17158">
    <marker
       style="overflow:visible"
       id="TriangleStart"
       refX="0"
       refY="0"
       orient="auto-start-reverse"
       inkscape:stockid="TriangleStart"
       markerWidth="5.3244081"
       markerHeight="6.155385"
       viewBox="0 0 5.3244081 6.1553851"
       inkscape:isstock="true"
       inkscape:collect="always"
       preserveAspectRatio="xMidYMid">
      <path
         transform="scale(0.5)"
         style="fill:context-stroke;fill-rule:evenodd;stroke:context-stroke;stroke-width:1pt"
         d="M 5.77,0 -2.88,5 V -5 Z"
         id="path135" />
    </marker>
    <linearGradient
       inkscape:collect="always"
       id="linearGradient22598">
      <stop
         style="stop-color:#000000;stop-opacity:1;"
         offset="0"
         id="stop22594" />
      <stop
         style="stop-color:#000000;stop-opacity:0;"
         offset="1"
         id="stop22596" />
    </linearGradient>
    <linearGradient
       inkscape:collect="always"
       xlink:href="#linearGradient22598"
       id="linearGradient22600"
       x1="20.132439"
       y1="10.825568"
       x2="23.471439"
       y2="10.825568"
       gradientUnits="userSpaceOnUse"
       gradientTransform="translate(2.8795014,0.20567867)" />
  </defs>
  <g
     inkscape:label="Layer 1"
     inkscape:groupmode="layer"
     id="layer1"
     transform="translate(-15.42547,-1.9833446)">
    <path
       id="rect18072"
       style="fill:#c3f1f1;stroke-width:0.502999"
       d="m 42.421183,8.0212158 c -0.113398,0.139117 -0.223365,0.2774515 -0.330212,0.4149618 -0.106847,0.1375102 -0.210667,0.274371 -0.311092,0.4103108 -0.100426,0.1359399 -0.197321,0.2712541 -0.291455,0.40566 -0.09414,0.134406 -0.185395,0.2681009 -0.273369,0.4010092 -0.08797,0.1329083 -0.172822,0.2649111 -0.254764,0.3963584 -0.08194,0.131447 -0.161153,0.262202 -0.237195,0.392224 -0.07604,0.130022 -0.148835,0.259456 -0.219108,0.38809 -0.07027,0.128634 -0.137939,0.256674 -0.202572,0.383956 -0.06463,0.127281 -0.126394,0.253856 -0.185518,0.379822 -0.05913,0.125965 -0.115754,0.251001 -0.169499,0.375687 -0.05374,0.124686 -0.104465,0.248627 -0.152962,0.372071 -0.0485,0.123443 -0.0946,0.246733 -0.137976,0.368969 -0.04338,0.122237 -0.08408,0.24377 -0.122474,0.364836 -0.03839,0.121066 -0.07447,0.241286 -0.108003,0.361218 -0.03353,0.119932 -0.06473,0.239283 -0.09354,0.358118 -0.02881,0.118834 -0.05537,0.237244 -0.07958,0.355017 -0.02421,0.117773 -0.04589,0.235168 -0.06563,0.351916 -0.01974,0.116749 -0.0373,0.233056 -0.05271,0.348816 -0.01541,0.11576 -0.02859,0.230908 -0.03979,0.345716 -0.0112,0.114807 -0.02026,0.229239 -0.02739,0.343131 -0.0071,0.113892 -0.01232,0.227019 -0.0155,0.340031 -0.0032,0.113013 -0.0048,0.225795 -0.0041,0.337964 6.35e-4,0.112169 0.0034,0.224017 0.0078,0.33538 0.0043,0.111363 0.01021,0.222204 0.01809,0.332796 0.0079,0.110593 0.01764,0.220871 0.02894,0.330729 0.0113,0.109859 0.02417,0.219502 0.03876,0.328663 0.01459,0.10916 0.03082,0.218095 0.04857,0.326595 0.01776,0.108499 0.03709,0.216653 0.05788,0.324528 0.02079,0.107874 0.04297,0.215174 0.06666,0.322461 0.02369,0.107286 0.04898,0.214176 0.07545,0.32091 0.05293,0.213468 0.111434,0.42621 0.174667,0.637687 0.06323,0.211478 0.131108,0.421708 0.203605,0.631486 0.0725,0.209778 0.149241,0.418983 0.22996,0.627352 0.08072,0.20837 0.165317,0.415966 0.253214,0.623218 0.0879,0.207252 0.179334,0.414209 0.273369,0.620634 0.09403,0.206425 0.190776,0.412161 0.289904,0.61805 0.09913,0.205889 0.200678,0.41189 0.303858,0.617533 0.206359,0.411288 0.419827,0.822497 0.636137,1.23455 0.216309,0.412053 0.435272,0.825089 0.65319,1.240235 0.217918,0.415146 0.434769,0.832071 0.645955,1.252637 0.105593,0.210282 0.20978,0.421478 0.312126,0.633553 0.102346,0.212074 0.2027,0.425081 0.300757,0.639237 0.09806,0.214157 0.193563,0.429426 0.286287,0.645955 0.09272,0.21653 0.182885,0.434514 0.269234,0.653707 0.08635,0.219194 0.168682,0.435309 0.247014,0.649056 0.07833,0.213748 0.15265,0.425221 0.223242,0.633553 0.07059,0.208333 0.137375,0.413551 0.200504,0.6165 0.06313,0.202949 0.122339,0.403401 0.178284,0.600997 0.05594,0.197596 0.108576,0.392703 0.157613,0.584977 0.04904,0.192275 0.09454,0.381974 0.136943,0.568958 0.04241,0.186984 0.08177,0.371213 0.117822,0.552938 0.03606,0.181724 0.06872,0.360938 0.0987,0.537435 0.02998,0.176496 0.05695,0.350115 0.08113,0.521415 0.02418,0.171299 0.04593,0.340295 0.0646,0.506429 0.01866,0.166133 0.03464,0.329411 0.04806,0.490409 0.01342,0.160999 0.0241,0.319529 0.03256,0.475423 0.0085,0.155895 0.01432,0.309098 0.01809,0.459921 0.0038,0.150822 0.0053,0.299153 0.0047,0.444934 -6.4e-4,0.14578 -0.0035,0.289177 -0.0083,0.429948 -0.0048,0.14077 -0.01153,0.27917 -0.02015,0.414961 -0.0086,0.135791 -0.0188,0.269133 -0.03101,0.399976 -0.0122,0.130843 -0.02636,0.259063 -0.04186,0.384989 -0.0155,0.125926 -0.03263,0.24948 -0.05116,0.37052 -0.01853,0.12104 -0.03816,0.239349 -0.05943,0.355534 -0.02127,0.116185 -0.04396,0.23022 -0.0677,0.341581 -0.02374,0.111362 -0.04849,0.220026 -0.07441,0.326595 -0.02593,0.10657 -0.05329,0.210835 -0.08113,0.312643 -0.02784,0.101808 -0.05631,0.201095 -0.08578,0.298173 -0.05895,0.194155 -0.120664,0.379067 -0.184485,0.554488 -0.06382,0.175421 -0.129896,0.341742 -0.19637,0.498678 -0.06647,0.156935 -0.133597,0.304685 -0.200505,0.443383 -0.06691,0.138699 -0.133317,0.268413 -0.198437,0.389124 l -2.108399,3.907772 H 69.107926 V 8.0212158 Z" />
    <path
       id="path31812"
       style="fill:#f1d3c3;fill-opacity:1;stroke-width:0.502999"
       d="M 15.73444,8.0212158 V 46.586304 h 26.686743 l 2.108399,-3.907772 c 0.06512,-0.120711 0.13153,-0.250425 0.198437,-0.389124 0.06691,-0.138698 0.134031,-0.286448 0.200505,-0.443383 0.06647,-0.156936 0.132549,-0.323257 0.19637,-0.498678 0.06382,-0.175421 0.125538,-0.360333 0.184485,-0.554488 0.02947,-0.09708 0.05794,-0.196365 0.08578,-0.298173 0.02784,-0.101808 0.05521,-0.206073 0.08113,-0.312643 0.02593,-0.106569 0.05068,-0.215233 0.07441,-0.326595 0.02374,-0.111361 0.04643,-0.225396 0.0677,-0.341581 0.02127,-0.116185 0.0409,-0.234494 0.05943,-0.355534 0.01853,-0.12104 0.03566,-0.244594 0.05116,-0.37052 0.0155,-0.125926 0.02965,-0.254146 0.04186,-0.384989 0.0122,-0.130843 0.02238,-0.264185 0.03101,-0.399976 0.0086,-0.135791 0.01538,-0.274191 0.02015,-0.414961 0.0048,-0.140771 0.0076,-0.284168 0.0083,-0.429948 6.39e-4,-0.145781 -8.81e-4,-0.294112 -0.0047,-0.444934 -0.0038,-0.150823 -0.0096,-0.304026 -0.01809,-0.459921 -0.0085,-0.155894 -0.01913,-0.314424 -0.03256,-0.475423 -0.01342,-0.160998 -0.0294,-0.324276 -0.04806,-0.490409 -0.01866,-0.166134 -0.04041,-0.33513 -0.0646,-0.506429 -0.02418,-0.1713 -0.05115,-0.344919 -0.08113,-0.521415 -0.02998,-0.176497 -0.06265,-0.355711 -0.0987,-0.537435 -0.03606,-0.181725 -0.07541,-0.365954 -0.117822,-0.552938 -0.04241,-0.186984 -0.08791,-0.376683 -0.136943,-0.568958 -0.04904,-0.192274 -0.101668,-0.387381 -0.157613,-0.584977 -0.05595,-0.197596 -0.115154,-0.398048 -0.178284,-0.600997 -0.06313,-0.202949 -0.129912,-0.408167 -0.200504,-0.6165 -0.07059,-0.208332 -0.14491,-0.419805 -0.223242,-0.633553 -0.07833,-0.213747 -0.160664,-0.429862 -0.247014,-0.649056 -0.08635,-0.219193 -0.17651,-0.437177 -0.269234,-0.653707 -0.09272,-0.216529 -0.188231,-0.431798 -0.286287,-0.645955 -0.09806,-0.214156 -0.198411,-0.427163 -0.300757,-0.639237 -0.102346,-0.212075 -0.206533,-0.423271 -0.312126,-0.633553 -0.211186,-0.420566 -0.428037,-0.837491 -0.645955,-1.252637 -0.217918,-0.415146 -0.436881,-0.828182 -0.65319,-1.240235 -0.21631,-0.412053 -0.429778,-0.823262 -0.636137,-1.23455 -0.10318,-0.205643 -0.204729,-0.411644 -0.303858,-0.617533 -0.09913,-0.205889 -0.19587,-0.411625 -0.289904,-0.61805 -0.09404,-0.206425 -0.185471,-0.413382 -0.273369,-0.620634 -0.0879,-0.207252 -0.172496,-0.414848 -0.253214,-0.623218 -0.08072,-0.208369 -0.157464,-0.417574 -0.22996,-0.627352 -0.0725,-0.209778 -0.140373,-0.420008 -0.203605,-0.631486 -0.06323,-0.211477 -0.121742,-0.424219 -0.174667,-0.637687 -0.02646,-0.106734 -0.05176,-0.213624 -0.07545,-0.32091 -0.02369,-0.107287 -0.04588,-0.214587 -0.06666,-0.322461 -0.02079,-0.107875 -0.04012,-0.216029 -0.05788,-0.324528 -0.01775,-0.1085 -0.03398,-0.217435 -0.04857,-0.326595 -0.01459,-0.109161 -0.02746,-0.218804 -0.03876,-0.328663 -0.0113,-0.109858 -0.02107,-0.220136 -0.02894,-0.330729 -0.0079,-0.110592 -0.01377,-0.221433 -0.01809,-0.332796 -0.0043,-0.111363 -0.0071,-0.223211 -0.0078,-0.33538 -6.35e-4,-0.112169 9.55e-4,-0.224951 0.0041,-0.337964 0.0032,-0.113012 0.0084,-0.226139 0.0155,-0.340031 0.0071,-0.113892 0.01619,-0.228324 0.02739,-0.343131 0.0112,-0.114808 0.02438,-0.229956 0.03979,-0.345716 0.01541,-0.11576 0.03297,-0.232067 0.05271,-0.348816 0.01974,-0.116748 0.04142,-0.234143 0.06563,-0.351916 0.02421,-0.117773 0.05078,-0.236183 0.07958,-0.355017 0.02881,-0.118835 0.06,-0.238186 0.09354,-0.358118 0.03353,-0.119932 0.06961,-0.240152 0.108003,-0.361218 0.03839,-0.121066 0.0791,-0.242599 0.122474,-0.364836 0.04338,-0.122236 0.08948,-0.245526 0.137976,-0.368969 0.0485,-0.123444 0.09922,-0.247385 0.152962,-0.372071 0.05374,-0.124686 0.110374,-0.249722 0.169499,-0.375687 0.05912,-0.125966 0.120885,-0.252541 0.185518,-0.379822 0.06463,-0.127282 0.132299,-0.255322 0.202572,-0.383956 0.07027,-0.128634 0.143065,-0.258068 0.219108,-0.38809 0.07604,-0.130022 0.155252,-0.260777 0.237195,-0.392224 0.08194,-0.1314473 0.166791,-0.2634501 0.254764,-0.3963584 0.08797,-0.1329083 0.179234,-0.2666032 0.273369,-0.4010092 0.09413,-0.1344059 0.191029,-0.2697201 0.291455,-0.40566 0.100425,-0.1359398 0.204245,-0.2728006 0.311092,-0.4103108 0.106847,-0.1375103 0.216814,-0.2758448 0.330212,-0.4149618 z" />
    <path
       style="fill:none;fill-opacity:1;stroke:#8c8c8c;stroke-width:0.502999;stroke-opacity:1"
       d="m 42.421225,8.0214681 c -7.257518,8.9034929 -0.963489,14.4792139 1.799688,21.4934219 2.763177,7.014208 1.350452,11.232049 0.30852,13.163433 -1.041932,1.931384 -2.108208,3.907893 -2.108208,3.907893 v 0 0"
       id="path18137"
       sodipodi:nodetypes="czzccc" />
    <text
       xml:space="preserve"
       style="font-size:4.23333px;font-family:Arial;-inkscape-font-specification:Arial;text-align:center;text-anchor:middle;fill:#000000;fill-opacity:1;stroke:#8c8c8c;stroke-width:0.502999;stroke-opacity:1"
       x="24.68144"
       y="12.237881"
       id="text22156"><tspan
         sodipodi:role="line"
         id="tspan22154"
         style="fill:#000000;fill-opacity:1;stroke:none;stroke-width:0.503"
         x="24.68144"
         y="12.237881">phase α</tspan></text>
    <text
       xml:space="preserve"
       style="font-size:4.23333px;font-family:Arial;-inkscape-font-specification:Arial;text-align:center;text-anchor:middle;fill:#000000;fill-opacity:1;stroke:#8c8c8c;stroke-width:0.502999;stroke-opacity:1"
       x="58.515583"
       y="12.237881"
       id="text23693"><tspan
         sodipodi:role="line"
         id="tspan23691"
         style="fill:#000000;fill-opacity:1;stroke:none;stroke-width:0.503"
         x="58.515583"
         y="12.237881">phase β</tspan></text>
    <text
       xml:space="preserve"
       style="font-size:4.23333px;font-family:Arial;-inkscape-font-specification:Arial;text-align:center;text-anchor:middle;fill:#f1d3c3;fill-opacity:1;stroke:none;stroke-width:0.502999;stroke-opacity:1"
       x="32.246078"
       y="5.013648"
       id="text32595"><tspan
         sodipodi:role="line"
         id="tspan32593"
         style="fill:#333333;fill-opacity:1;stroke-width:0.503"
         x="32.246078"
         y="5.013648">Binary Mixture AB</tspan></text>
    <text
       xml:space="preserve"
       style="font-size:4.23333px;font-family:Arial;-inkscape-font-specification:Arial;text-align:center;text-anchor:middle;fill:#333333;fill-opacity:1;stroke:none;stroke-width:0.502999;stroke-opacity:1"
       x="42.330044"
       y="51.745621"
       id="text33377"><tspan
         sodipodi:role="line"
         id="tspan33375"
         style="stroke-width:0.503"
         x="42.330044"
         y="51.745621">Interface</tspan></text>
    <g
       id="g38122"
       transform="translate(3.9538609,9.8104007)">
      <g
         id="g34945"
         transform="translate(-0.04594482,-9.194931)">
        <circle
           style="fill:#333333;fill-opacity:1;stroke:none;stroke-width:0.502999;stroke-opacity:1"
           id="path34933"
           cx="13.369114"
           cy="53.337822"
           r="1.54259" />
        <circle
           style="fill:#d57070;fill-opacity:1;stroke:none;stroke-width:0.502999;stroke-opacity:1"
           id="circle34935"
           cx="16.423666"
           cy="53.337822"
           r="1.54259" />
        <circle
           style="fill:#333333;fill-opacity:1;stroke:none;stroke-width:0.502999;stroke-opacity:1"
           id="circle34937"
           cx="19.478216"
           cy="53.337822"
           r="1.54259" />
        <circle
           style="fill:#d57070;fill-opacity:1;stroke:none;stroke-width:0.502999;stroke-opacity:1"
           id="circle34939"
           cx="22.532768"
           cy="53.337822"
           r="1.54259" />
      </g>
      <g
         id="g34955"
         transform="translate(-0.03062988,-6.129954)">
        <circle
           style="fill:#333333;fill-opacity:1;stroke:none;stroke-width:0.502999;stroke-opacity:1"
           id="circle34947"
           cx="13.369114"
           cy="53.337822"
           r="1.54259" />
        <circle
           style="fill:#d57070;fill-opacity:1;stroke:none;stroke-width:0.502999;stroke-opacity:1"
           id="circle34949"
           cx="16.423666"
           cy="53.337822"
           r="1.54259" />
        <circle
           style="fill:#333333;fill-opacity:1;stroke:none;stroke-width:0.502999;stroke-opacity:1"
           id="circle34951"
           cx="19.478216"
           cy="53.337822"
           r="1.54259" />
        <circle
           style="fill:#d57070;fill-opacity:1;stroke:none;stroke-width:0.502999;stroke-opacity:1"
           id="circle34953"
           cx="22.532768"
           cy="53.337822"
           r="1.54259" />
      </g>
      <g
         id="g34965"
         transform="translate(-0.01531494,-3.064977)">
        <circle
           style="fill:#333333;fill-opacity:1;stroke:none;stroke-width:0.502999;stroke-opacity:1"
           id="circle34957"
           cx="13.369114"
           cy="53.337822"
           r="1.54259" />
        <circle
           style="fill:#d57070;fill-opacity:1;stroke:none;stroke-width:0.502999;stroke-opacity:1"
           id="circle34959"
           cx="16.423666"
           cy="53.337822"
           r="1.54259" />
        <circle
           style="fill:#333333;fill-opacity:1;stroke:none;stroke-width:0.502999;stroke-opacity:1"
           id="circle34961"
           cx="19.478216"
           cy="53.337822"
           r="1.54259" />
        <circle
           style="fill:#d57070;fill-opacity:1;stroke:none;stroke-width:0.502999;stroke-opacity:1"
           id="circle34963"
           cx="22.532768"
           cy="53.337822"
           r="1.54259" />
      </g>
      <circle
         style="fill:#333333;fill-opacity:1;stroke:none;stroke-width:0.502999;stroke-opacity:1"
         id="circle34967"
         cx="13.369114"
         cy="53.337822"
         r="1.54259" />
      <circle
         style="fill:#d57070;fill-opacity:1;stroke:none;stroke-width:0.502999;stroke-opacity:1"
         id="circle34969"
         cx="16.423666"
         cy="53.337822"
         r="1.54259" />
      <circle
         style="fill:#333333;fill-opacity:1;stroke:none;stroke-width:0.502999;stroke-opacity:1"
         id="circle34971"
         cx="19.478216"
         cy="53.337822"
         r="1.54259" />
      <circle
         style="fill:#d57070;fill-opacity:1;stroke:none;stroke-width:0.502999;stroke-opacity:1"
         id="circle34973"
         cx="22.532768"
         cy="53.337822"
         r="1.54259" />
    </g>
    <g
       id="g38162"
       transform="translate(44.975235,9.8104007)">
      <g
         id="g38132"
         transform="translate(-0.04594482,-9.194931)">
        <circle
           style="fill:#333333;fill-opacity:1;stroke:none;stroke-width:0.502999;stroke-opacity:1"
           id="circle38124"
           cx="13.369114"
           cy="53.337822"
           r="1.54259" />
        <circle
           style="fill:#d57070;fill-opacity:1;stroke:none;stroke-width:0.502999;stroke-opacity:1"
           id="circle38126"
           cx="16.423666"
           cy="53.337822"
           r="1.54259" />
        <circle
           style="fill:#333333;fill-opacity:1;stroke:none;stroke-width:0.502999;stroke-opacity:1"
           id="circle38128"
           cx="19.478216"
           cy="53.337822"
           r="1.54259" />
        <circle
           style="fill:#d57070;fill-opacity:1;stroke:none;stroke-width:0.502999;stroke-opacity:1"
           id="circle38130"
           cx="22.532768"
           cy="53.337822"
           r="1.54259" />
      </g>
      <g
         id="g38142"
         transform="translate(-0.03062988,-6.129954)">
        <circle
           style="fill:#d57070;fill-opacity:1;stroke:none;stroke-width:0.502999;stroke-opacity:1"
           id="circle38134"
           cx="13.369114"
           cy="53.337822"
           r="1.54259" />
        <circle
           style="fill:#333333;fill-opacity:1;stroke:none;stroke-width:0.502999;stroke-opacity:1"
           id="circle38136"
           cx="16.423666"
           cy="53.337822"
           r="1.54259" />
        <circle
           style="fill:#d57070;fill-opacity:1;stroke:none;stroke-width:0.502999;stroke-opacity:1"
           id="circle38138"
           cx="19.478216"
           cy="53.337822"
           r="1.54259" />
        <circle
           style="fill:#333333;fill-opacity:1;stroke:none;stroke-width:0.502999;stroke-opacity:1"
           id="circle38140"
           cx="22.532768"
           cy="53.337822"
           r="1.54259" />
      </g>
      <g
         id="g38152"
         transform="translate(-0.01531494,-3.064977)">
        <circle
           style="fill:#333333;fill-opacity:1;stroke:none;stroke-width:0.502999;stroke-opacity:1"
           id="circle38144"
           cx="13.369114"
           cy="53.337822"
           r="1.54259" />
        <circle
           style="fill:#d57070;fill-opacity:1;stroke:none;stroke-width:0.502999;stroke-opacity:1"
           id="circle38146"
           cx="16.423666"
           cy="53.337822"
           r="1.54259" />
        <circle
           style="fill:#333333;fill-opacity:1;stroke:none;stroke-width:0.502999;stroke-opacity:1"
           id="circle38148"
           cx="19.478216"
           cy="53.337822"
           r="1.54259" />
        <circle
           style="fill:#d57070;fill-opacity:1;stroke:none;stroke-width:0.502999;stroke-opacity:1"
           id="circle38150"
           cx="22.532768"
           cy="53.337822"
           r="1.54259" />
      </g>
      <circle
         style="fill:#d57070;fill-opacity:1;stroke:none;stroke-width:0.502999;stroke-opacity:1"
         id="circle38154"
         cx="13.369114"
         cy="53.337822"
         r="1.54259" />
      <circle
         style="fill:#333333;fill-opacity:1;stroke:none;stroke-width:0.502999;stroke-opacity:1"
         id="circle38156"
         cx="16.423666"
         cy="53.337822"
         r="1.54259" />
      <circle
         style="fill:#d57070;fill-opacity:1;stroke:none;stroke-width:0.502999;stroke-opacity:1"
         id="circle38158"
         cx="19.478216"
         cy="53.337822"
         r="1.54259" />
      <circle
         style="fill:#d57070;fill-opacity:1;stroke:none;stroke-width:0.502999;stroke-opacity:1"
         id="circle38160"
         cx="22.532768"
         cy="53.337822"
         r="1.54259" />
    </g>
    <rect
       style="fill:none;fill-opacity:1;stroke:#8c8c8c;stroke-width:0.502999;stroke-opacity:1"
       id="rect38216"
       width="2.4407976"
       height="2.4407976"
       x="20.331581"
       y="36.825607" />
    <rect
       style="fill:none;fill-opacity:1;stroke:#8c8c8c;stroke-width:0.502999;stroke-opacity:1"
       id="rect38633"
       width="2.4407976"
       height="2.4407976"
       x="61.500431"
       y="37.573357" />
    <path
       style="fill:none;fill-opacity:1;stroke:#8c8c8c;stroke-width:0.502999;stroke-opacity:1"
       d="m 20.331581,39.266402 -4.182912,13.1443"
       id="path38998"
       sodipodi:nodetypes="cc" />
    <path
       style="fill:none;fill-opacity:1;stroke:#8c8c8c;stroke-width:0.502999;stroke-opacity:1"
       d="m 22.772379,39.266402 4.745377,13.1443"
       id="path39002"
       sodipodi:nodetypes="cc" />
    <path
       style="fill:none;fill-opacity:1;stroke:#8c8c8c;stroke-width:0.502999;stroke-opacity:1"
       d="M 61.500431,40.014153 56.742798,51.79523"
       id="path39004"
       sodipodi:nodetypes="cc" />
    <path
       style="fill:none;fill-opacity:1;stroke:#8c8c8c;stroke-width:0.502999;stroke-opacity:1"
       d="m 63.941231,40.014153 5.063415,11.875251"
       id="path39006"
       sodipodi:nodetypes="cc" />
    <rect
       style="fill:none;fill-opacity:1;stroke:#8c8c8c;stroke-width:0.502999;stroke-opacity:1"
       id="rect45313"
       width="12.409719"
       height="13.1683"
       x="15.67697"
       y="51.966606" />
    <rect
       style="fill:none;fill-opacity:1;stroke:#8c8c8c;stroke-width:0.502999;stroke-opacity:1"
       id="rect46081"
       width="12.409719"
       height="13.1683"
       x="56.594929"
       y="51.889404" />
    <path
       style="fill:none;fill-opacity:1;stroke:#8c8c8c;stroke-width:0.502999;stroke-dasharray:0.502999, 0.502999;stroke-dashoffset:0;stroke-opacity:1"
       d="m 42.203623,8.0288545 c -0.265845,7.6915435 4.497203,13.6938405 1.799688,21.4934215 -2.697515,7.799581 -1.563713,7.799581 -2.375231,10.743378 -0.512401,1.858744 0.575543,6.327948 0.575543,6.327948 v 0 0"
       id="path46809"
       sodipodi:nodetypes="czsccc" />
    <path
       style="fill:none;fill-opacity:1;stroke:#8c8c8c;stroke-width:0.502999;stroke-dasharray:none;stroke-dashoffset:0;stroke-opacity:1;marker-end:url(#TriangleStart)"
       d="m 39.313363,18.51825 3.126234,0.09971"
       id="path47537" />
    <text
       xml:space="preserve"
       style="font-size:4.23333px;font-family:Arial;-inkscape-font-specification:Arial;text-align:center;text-anchor:middle;fill:none;fill-opacity:1;stroke:#8c8c8c;stroke-width:0.502999;stroke-dasharray:none;stroke-dashoffset:0;stroke-opacity:1"
       x="27.080191"
       y="-35.362568"
       id="text49029"
       transform="rotate(90.472601)"><tspan
         sodipodi:role="line"
         id="tspan49027"
         style="fill:#001b1b;fill-opacity:1;stroke:none;stroke-width:0.503"
         x="27.080191"
         y="-35.362568">Transformation</tspan></text>
  </g>
</svg>
