<?xml version="1.0" encoding="UTF-8" standalone="no"?>
<!-- Created with Inkscape (http://www.inkscape.org/) -->

<svg
   xmlns:dc="http://purl.org/dc/elements/1.1/"
   xmlns:cc="http://creativecommons.org/ns#"
   xmlns:rdf="http://www.w3.org/1999/02/22-rdf-syntax-ns#"
   xmlns:svg="http://www.w3.org/2000/svg"
   xmlns="http://www.w3.org/2000/svg"
   xmlns:xlink="http://www.w3.org/1999/xlink"
   xmlns:sodipodi="http://sodipodi.sourceforge.net/DTD/sodipodi-0.dtd"
   xmlns:inkscape="http://www.inkscape.org/namespaces/inkscape"
   width="151.94644mm"
   height="53.294643mm"
   viewBox="0 0 151.94644 53.294643"
   version="1.1"
   id="svg20055"
   inkscape:version="0.92.2 5c3e80d, 2017-08-06"
   sodipodi:docname="curvature-AB.svg">
  <defs
     id="defs20049">
    <marker
       inkscape:isstock="true"
       style="overflow:visible"
       id="marker21289"
       refX="0"
       refY="0"
       orient="auto"
       inkscape:stockid="Arrow1Mend">
      <path
         transform="matrix(-0.4,0,0,-0.4,-4,0)"
         style="fill:#000000;fill-opacity:1;fill-rule:evenodd;stroke:#000000;stroke-width:1.00000003pt;stroke-opacity:1"
         d="M 0,0 5,-5 -12.5,0 5,5 Z"
         id="path21287"
         inkscape:connector-curvature="0" />
    </marker>
    <inkscape:path-effect
       is_visible="true"
       id="path-effect21277"
       effect="spiro" />
    <marker
       inkscape:stockid="Arrow1Mend"
       orient="auto"
       refY="0"
       refX="0"
       id="Arrow1Mend"
       style="overflow:visible"
       inkscape:isstock="true"
       inkscape:collect="always">
      <path
         id="path5634"
         d="M 0,0 5,-5 -12.5,0 5,5 Z"
         style="fill:#000000;fill-opacity:1;fill-rule:evenodd;stroke:#000000;stroke-width:1.00000003pt;stroke-opacity:1"
         transform="matrix(-0.4,0,0,-0.4,-4,0)"
         inkscape:connector-curvature="0" />
    </marker>
    <inkscape:path-effect
       effect="spiro"
       id="path-effect21237"
       is_visible="true" />
    <linearGradient
       id="linearGradient21225"
       inkscape:collect="always">
      <stop
         id="stop21221"
         offset="0"
         style="stop-color:#90c6ea;stop-opacity:1" />
      <stop
         id="stop21223"
         offset="1"
         style="stop-color:#fffefe;stop-opacity:0" />
    </linearGradient>
    <linearGradient
       inkscape:collect="always"
       id="linearGradient21209">
      <stop
         style="stop-color:#ffbebe;stop-opacity:1"
         offset="0"
         id="stop21205" />
      <stop
         style="stop-color:#fffefe;stop-opacity:0"
         offset="1"
         id="stop21207" />
    </linearGradient>
    <linearGradient
       inkscape:collect="always"
       xlink:href="#linearGradient21209"
       id="linearGradient21211"
       x1="183.07092"
       y1="322.96896"
       x2="183.07092"
       y2="170.8261"
       gradientUnits="userSpaceOnUse" />
    <linearGradient
       inkscape:collect="always"
       xlink:href="#linearGradient21225"
       id="linearGradient21219"
       x1="188.7852"
       y1="326.80621"
       x2="188.7852"
       y2="488.2348"
       gradientUnits="userSpaceOnUse" />
    <linearGradient
       inkscape:collect="always"
       xlink:href="#linearGradient21225"
       id="linearGradient21283"
       gradientUnits="userSpaceOnUse"
       x1="188.7852"
       y1="326.80621"
       x2="188.7852"
       y2="488.2348"
       gradientTransform="matrix(0.26458333,0,0,0.26458333,79.374999,0)" />
    <linearGradient
       inkscape:collect="always"
       xlink:href="#linearGradient21209"
       id="linearGradient21285"
       gradientUnits="userSpaceOnUse"
       x1="183.07092"
       y1="322.96896"
       x2="183.07092"
       y2="170.8261"
       gradientTransform="matrix(0.26458333,0,0,0.26458333,79.374999,0)" />
  </defs>
  <sodipodi:namedview
     id="base"
     pagecolor="#ffffff"
     bordercolor="#666666"
     borderopacity="1.0"
     inkscape:pageopacity="0.0"
     inkscape:pageshadow="2"
     inkscape:zoom="1.4"
     inkscape:cx="148.01654"
     inkscape:cy="-55.934932"
     inkscape:document-units="mm"
     inkscape:current-layer="layer1"
     showgrid="false"
     fit-margin-top="0"
     fit-margin-left="0"
     fit-margin-right="0"
     fit-margin-bottom="0"
     inkscape:window-width="2560"
     inkscape:window-height="1315"
     inkscape:window-x="0"
     inkscape:window-y="1"
     inkscape:window-maximized="1">
    <sodipodi:guide
       position="81.054341,13.720519"
       orientation="-11.453124,0"
       id="guide21547"
       inkscape:locked="false" />
    <sodipodi:guide
       position="81.054341,16.750829"
       orientation="0,10.718749"
       id="guide21549"
       inkscape:locked="false" />
    <sodipodi:guide
       position="83.890344,16.750829"
       orientation="11.453124,0"
       id="guide21551"
       inkscape:locked="false" />
    <sodipodi:guide
       position="83.890344,13.720519"
       orientation="0,-10.718749"
       id="guide21553"
       inkscape:locked="false" />
  </sodipodi:namedview>
  <metadata
     id="metadata20052">
    <rdf:RDF>
      <cc:Work
         rdf:about="">
        <dc:format>image/svg+xml</dc:format>
        <dc:type
           rdf:resource="http://purl.org/dc/dcmitype/StillImage" />
        <dc:title></dc:title>
      </cc:Work>
    </rdf:RDF>
  </metadata>
  <g
     inkscape:label="Layer 1"
     inkscape:groupmode="layer"
     id="layer1"
     transform="translate(-15.686013,-60.008926)">
    <path
       style="color:#000000;clip-rule:nonzero;display:inline;overflow:visible;visibility:visible;opacity:1;isolation:auto;mix-blend-mode:normal;color-interpolation:sRGB;color-interpolation-filters:linearRGB;solid-color:#000000;solid-opacity:1;fill:url(#linearGradient21219);fill-opacity:1;fill-rule:evenodd;stroke:none;stroke-width:1.00157475;stroke-linecap:round;stroke-linejoin:miter;stroke-miterlimit:4;stroke-dasharray:none;stroke-dashoffset:0;stroke-opacity:1;paint-order:normal;color-rendering:auto;image-rendering:auto;shape-rendering:auto;text-rendering:auto;enable-background:accumulate"
       d="m 327.14258,358.32812 a 176.42858,159.99999 0 0 0 -8.4375,-8.71093 176.42858,159.99999 0 0 0 -12.9043,-10.90039 176.42858,159.99999 0 0 0 -14.03906,-9.67969 176.42858,159.99999 0 0 0 -15.03516,-8.35938 176.42858,159.99999 0 0 0 -15.8789,-6.95703 176.42858,159.99999 0 0 0 -16.56641,-5.48437 176.42858,159.99999 0 0 0 -17.08789,-3.95508 176.42858,159.99999 0 0 0 -17.4375,-2.39063 176.42858,159.99999 0 0 0 -17.61328,-0.79882 176.42858,159.99999 0 0 0 -12.48047,0.40039 176.42858,159.99999 0 0 0 -17.50586,1.92773 176.42858,159.99999 0 0 0 -17.20703,3.50196 176.42858,159.99999 0 0 0 -16.73633,5.04296 176.42858,159.99999 0 0 0 -16.09766,6.53321 176.42858,159.99999 0 0 0 -15.296871,7.95703 176.42858,159.99999 0 0 0 -14.345703,9.30469 176.42858,159.99999 0 0 0 -13.248047,10.55468 176.42858,159.99999 0 0 0 -6.367187,6.19727 v 131.4375 H 327.14258 Z"
       id="path21201"
       transform="scale(0.26458333)"
       inkscape:connector-curvature="0" />
    <path
       style="color:#000000;clip-rule:nonzero;display:inline;overflow:visible;visibility:visible;opacity:1;isolation:auto;mix-blend-mode:normal;color-interpolation:sRGB;color-interpolation-filters:linearRGB;solid-color:#000000;solid-opacity:1;fill:url(#linearGradient21211);fill-opacity:1;fill-rule:evenodd;stroke:none;stroke-width:1.00157475;stroke-linecap:round;stroke-linejoin:miter;stroke-miterlimit:4;stroke-dasharray:none;stroke-dashoffset:0;stroke-opacity:1;paint-order:normal;color-rendering:auto;image-rendering:auto;shape-rendering:auto;text-rendering:auto;enable-background:accumulate"
       d="m 62.857422,205.37695 v 147.13477 a 176.42858,159.99999 0 0 1 6.367187,-6.19727 176.42858,159.99999 0 0 1 13.248047,-10.55468 176.42858,159.99999 0 0 1 14.345703,-9.30469 176.42858,159.99999 0 0 1 15.296871,-7.95703 176.42858,159.99999 0 0 1 16.09766,-6.53321 176.42858,159.99999 0 0 1 16.73633,-5.04296 176.42858,159.99999 0 0 1 17.20703,-3.50196 176.42858,159.99999 0 0 1 17.50586,-1.92773 176.42858,159.99999 0 0 1 12.48047,-0.40039 176.42858,159.99999 0 0 1 17.61328,0.79882 176.42858,159.99999 0 0 1 17.4375,2.39063 176.42858,159.99999 0 0 1 17.08789,3.95508 176.42858,159.99999 0 0 1 16.56641,5.48437 176.42858,159.99999 0 0 1 15.8789,6.95703 176.42858,159.99999 0 0 1 15.03516,8.35938 176.42858,159.99999 0 0 1 14.03906,9.67969 176.42858,159.99999 0 0 1 12.9043,10.90039 176.42858,159.99999 0 0 1 8.4375,8.71093 V 205.37695 Z"
       id="rect21194"
       transform="scale(0.26458333)"
       inkscape:connector-curvature="0" />
    <text
       xml:space="preserve"
       style="font-style:normal;font-variant:normal;font-weight:bold;font-stretch:normal;font-size:4.23333311px;line-height:125%;font-family:arial;-inkscape-font-specification:'arial Bold';font-variant-ligatures:normal;font-variant-caps:normal;font-variant-numeric:normal;font-feature-settings:normal;text-align:center;letter-spacing:0px;word-spacing:0px;writing-mode:lr-tb;text-anchor:middle;fill:#000000;fill-opacity:1;stroke:none;stroke-width:0.26458332px;stroke-linecap:butt;stroke-linejoin:miter;stroke-opacity:1"
       x="18.785416"
       y="99.583046"
       id="text21229"><tspan
         sodipodi:role="line"
         id="tspan21227"
         x="18.785416"
         y="99.583046"
         style="font-style:normal;font-variant:normal;font-weight:normal;font-stretch:normal;font-family:arial;-inkscape-font-specification:arial;stroke-width:0.26458332px">A</tspan></text>
    <text
       id="text21233"
       y="83.708054"
       x="18.785416"
       style="font-style:normal;font-variant:normal;font-weight:bold;font-stretch:normal;font-size:4.23333311px;line-height:125%;font-family:arial;-inkscape-font-specification:'arial Bold';font-variant-ligatures:normal;font-variant-caps:normal;font-variant-numeric:normal;font-feature-settings:normal;text-align:center;letter-spacing:0px;word-spacing:0px;writing-mode:lr-tb;text-anchor:middle;fill:#000000;fill-opacity:1;stroke:none;stroke-width:0.26458332px;stroke-linecap:butt;stroke-linejoin:miter;stroke-opacity:1"
       xml:space="preserve"><tspan
         style="font-style:normal;font-variant:normal;font-weight:normal;font-stretch:normal;font-family:arial;-inkscape-font-specification:arial;stroke-width:0.26458332px"
         y="83.708054"
         x="18.785416"
         id="tspan21231"
         sodipodi:role="line">B</tspan></text>
    <path
       style="fill:none;fill-rule:evenodd;stroke:#000000;stroke-width:0.26499999;stroke-linecap:butt;stroke-linejoin:miter;stroke-miterlimit:4;stroke-dasharray:none;stroke-opacity:1;marker-end:url(#Arrow1Mend)"
       d="M 50.447122,79.643056 V 71.825421"
       id="path21235"
       inkscape:connector-curvature="0"
       inkscape:path-effect="#path-effect21237"
       inkscape:original-d="m 50.447122,79.643056 c 2.65e-4,-2.606143 2.65e-4,-5.212021 0,-7.817635" />
    <text
       xml:space="preserve"
       style="font-style:normal;font-variant:normal;font-weight:bold;font-stretch:normal;font-size:4.23333311px;line-height:125%;font-family:arial;-inkscape-font-specification:'arial Bold';font-variant-ligatures:normal;font-variant-caps:normal;font-variant-numeric:normal;font-feature-settings:normal;text-align:center;letter-spacing:0px;word-spacing:0px;writing-mode:lr-tb;text-anchor:middle;fill:#000000;fill-opacity:1;stroke:none;stroke-width:0.26458332px;stroke-linecap:butt;stroke-linejoin:miter;stroke-opacity:1"
       x="52.518459"
       y="71.357697"
       id="text21261"><tspan
         sodipodi:role="line"
         id="tspan21259"
         x="52.518459"
         y="71.357697"
         style="font-style:italic;font-variant:normal;font-weight:bold;font-stretch:normal;font-family:arial;-inkscape-font-specification:'arial Bold Italic';stroke-width:0.26458332px">n</tspan></text>
    <path
       id="path21263"
       d="m 165.93147,94.807647 a 46.680061,42.33333 0 0 0 -2.23243,-2.304767 46.680061,42.33333 0 0 0 -3.41426,-2.884061 46.680061,42.33333 0 0 0 -3.7145,-2.561085 46.680061,42.33333 0 0 0 -3.97805,-2.211752 46.680061,42.33333 0 0 0 -4.20129,-1.840715 46.680061,42.33333 0 0 0 -4.3832,-1.451072 46.680061,42.33333 0 0 0 -4.52117,-1.046449 46.680061,42.33333 0 0 0 -4.61367,-0.63252 46.680061,42.33333 0 0 0 -4.66018,-0.211355 46.680061,42.33333 0 0 0 -3.30213,0.105937 46.680061,42.33333 0 0 0 -4.63176,0.510045 46.680061,42.33333 0 0 0 -4.55269,0.92656 46.680061,42.33333 0 0 0 -4.42815,1.334283 46.680061,42.33333 0 0 0 -4.25918,1.728579 46.680061,42.33333 0 0 0 -4.04729,2.105297 46.680061,42.33333 0 0 0 -3.79563,2.461866 46.680061,42.33333 0 0 0 -3.505217,2.792592 46.680061,42.33333 0 0 0 -1.68465,1.639695 V 128.0449 h 69.925447 z"
       style="color:#000000;clip-rule:nonzero;display:inline;overflow:visible;visibility:visible;opacity:1;isolation:auto;mix-blend-mode:normal;color-interpolation:sRGB;color-interpolation-filters:linearRGB;solid-color:#000000;solid-opacity:1;fill:url(#linearGradient21283);fill-opacity:1;fill-rule:evenodd;stroke:none;stroke-width:0.26499999;stroke-linecap:round;stroke-linejoin:miter;stroke-miterlimit:4;stroke-dasharray:none;stroke-dashoffset:0;stroke-opacity:1;paint-order:normal;color-rendering:auto;image-rendering:auto;shape-rendering:auto;text-rendering:auto;enable-background:accumulate"
       inkscape:connector-curvature="0" />
    <path
       id="path21265"
       d="m 96.006023,54.339317 v 38.929408 a 46.680061,42.33333 0 0 1 1.68465,-1.639695 46.680061,42.33333 0 0 1 3.505217,-2.792592 46.680061,42.33333 0 0 1 3.79563,-2.461866 46.680061,42.33333 0 0 1 4.04729,-2.105297 46.680061,42.33333 0 0 1 4.25918,-1.728579 46.680061,42.33333 0 0 1 4.42815,-1.334283 46.680061,42.33333 0 0 1 4.55269,-0.92656 46.680061,42.33333 0 0 1 4.63176,-0.510045 46.680061,42.33333 0 0 1 3.30213,-0.105937 46.680061,42.33333 0 0 1 4.66018,0.211355 46.680061,42.33333 0 0 1 4.61367,0.63252 46.680061,42.33333 0 0 1 4.52117,1.046449 46.680061,42.33333 0 0 1 4.3832,1.451072 46.680061,42.33333 0 0 1 4.20129,1.840715 46.680061,42.33333 0 0 1 3.97805,2.211752 46.680061,42.33333 0 0 1 3.7145,2.561085 46.680061,42.33333 0 0 1 3.41426,2.884061 46.680061,42.33333 0 0 1 2.23243,2.304767 v -40.46833 z"
       style="color:#000000;clip-rule:nonzero;display:inline;overflow:visible;visibility:visible;opacity:1;isolation:auto;mix-blend-mode:normal;color-interpolation:sRGB;color-interpolation-filters:linearRGB;solid-color:#000000;solid-opacity:1;fill:url(#linearGradient21285);fill-opacity:1;fill-rule:evenodd;stroke:none;stroke-width:0.26499999;stroke-linecap:round;stroke-linejoin:miter;stroke-miterlimit:4;stroke-dasharray:none;stroke-dashoffset:0;stroke-opacity:1;paint-order:normal;color-rendering:auto;image-rendering:auto;shape-rendering:auto;text-rendering:auto;enable-background:accumulate"
       inkscape:connector-curvature="0" />
    <text
       id="text21269"
       y="99.583046"
       x="98.160423"
       style="font-style:normal;font-variant:normal;font-weight:bold;font-stretch:normal;font-size:4.23333311px;line-height:125%;font-family:arial;-inkscape-font-specification:'arial Bold';font-variant-ligatures:normal;font-variant-caps:normal;font-variant-numeric:normal;font-feature-settings:normal;text-align:center;letter-spacing:0px;word-spacing:0px;writing-mode:lr-tb;text-anchor:middle;fill:#000000;fill-opacity:1;stroke:none;stroke-width:0.26458332px;stroke-linecap:butt;stroke-linejoin:miter;stroke-opacity:1"
       xml:space="preserve"><tspan
         style="font-style:normal;font-variant:normal;font-weight:normal;font-stretch:normal;font-family:arial;-inkscape-font-specification:arial;stroke-width:0.26458332px"
         y="99.583046"
         x="98.160423"
         id="tspan21267"
         sodipodi:role="line">A</tspan></text>
    <text
       xml:space="preserve"
       style="font-style:normal;font-variant:normal;font-weight:bold;font-stretch:normal;font-size:4.23333311px;line-height:125%;font-family:arial;-inkscape-font-specification:'arial Bold';font-variant-ligatures:normal;font-variant-caps:normal;font-variant-numeric:normal;font-feature-settings:normal;text-align:center;letter-spacing:0px;word-spacing:0px;writing-mode:lr-tb;text-anchor:middle;fill:#000000;fill-opacity:1;stroke:none;stroke-width:0.26458332px;stroke-linecap:butt;stroke-linejoin:miter;stroke-opacity:1"
       x="98.160423"
       y="83.708054"
       id="text21273"><tspan
         sodipodi:role="line"
         id="tspan21271"
         x="98.160423"
         y="83.708054"
         style="font-style:normal;font-variant:normal;font-weight:normal;font-stretch:normal;font-family:arial;-inkscape-font-specification:arial;stroke-width:0.26458332px">B</tspan></text>
    <path
       inkscape:original-d="m 130.35129,79.769862 c 2.6e-4,2.606143 2.6e-4,5.212021 0,7.817635"
       inkscape:path-effect="#path-effect21277"
       inkscape:connector-curvature="0"
       id="path21275"
       d="m 130.35129,79.769862 v 7.817635"
       style="fill:none;fill-rule:evenodd;stroke:#000000;stroke-width:0.26499999;stroke-linecap:butt;stroke-linejoin:miter;stroke-miterlimit:4;stroke-dasharray:none;stroke-opacity:1;marker-end:url(#marker21289)" />
    <text
       id="text21281"
       y="88.744598"
       x="132.83839"
       style="font-style:normal;font-variant:normal;font-weight:bold;font-stretch:normal;font-size:4.23333311px;line-height:125%;font-family:arial;-inkscape-font-specification:'arial Bold';font-variant-ligatures:normal;font-variant-caps:normal;font-variant-numeric:normal;font-feature-settings:normal;text-align:center;letter-spacing:0px;word-spacing:0px;writing-mode:lr-tb;text-anchor:middle;fill:#000000;fill-opacity:1;stroke:none;stroke-width:0.26458332px;stroke-linecap:butt;stroke-linejoin:miter;stroke-opacity:1"
       xml:space="preserve"><tspan
         style="font-style:italic;font-variant:normal;font-weight:bold;font-stretch:normal;font-family:arial;-inkscape-font-specification:'arial Bold Italic';stroke-width:0.26458332px"
         y="88.744598"
         x="132.83839"
         id="tspan21279"
         sodipodi:role="line">n</tspan></text>
    <text
       xml:space="preserve"
       style="font-style:normal;font-variant:normal;font-weight:bold;font-stretch:normal;font-size:4.23333311px;line-height:125%;font-family:arial;-inkscape-font-specification:'arial Bold';font-variant-ligatures:normal;font-variant-caps:normal;font-variant-numeric:normal;font-feature-settings:normal;text-align:center;letter-spacing:0px;word-spacing:0px;writing-mode:lr-tb;text-anchor:middle;fill:#000000;fill-opacity:1;stroke:none;stroke-width:0.26458332px;stroke-linecap:butt;stroke-linejoin:miter;stroke-opacity:1"
       x="50.195236"
       y="97.693146"
       id="text21481"><tspan
         sodipodi:role="line"
         id="tspan21479"
         x="50.195236"
         y="97.693146"
         style="font-style:normal;font-variant:normal;font-weight:normal;font-stretch:normal;font-family:arial;-inkscape-font-specification:arial;stroke-width:0.26458332px"><tspan
   style="font-style:italic;font-variant:normal;font-weight:normal;font-stretch:normal;font-family:arial;-inkscape-font-specification:'arial Italic'"
   id="tspan21535">ℌ</tspan> &lt; 0</tspan></text>
    <text
       id="text21541"
       y="97.693146"
       x="130.62854"
       style="font-style:normal;font-variant:normal;font-weight:bold;font-stretch:normal;font-size:4.23333311px;line-height:125%;font-family:arial;-inkscape-font-specification:'arial Bold';font-variant-ligatures:normal;font-variant-caps:normal;font-variant-numeric:normal;font-feature-settings:normal;text-align:center;letter-spacing:0px;word-spacing:0px;writing-mode:lr-tb;text-anchor:middle;fill:#000000;fill-opacity:1;stroke:none;stroke-width:0.26458332px;stroke-linecap:butt;stroke-linejoin:miter;stroke-opacity:1"
       xml:space="preserve"><tspan
         style="font-style:normal;font-variant:normal;font-weight:normal;font-stretch:normal;font-family:arial;-inkscape-font-specification:arial;stroke-width:0.26458332px"
         y="97.693146"
         x="130.62854"
         id="tspan21539"
         sodipodi:role="line"><tspan
   id="tspan21537"
   style="font-style:italic;font-variant:normal;font-weight:normal;font-stretch:normal;font-family:arial;-inkscape-font-specification:'arial Italic'">ℌ</tspan> &gt; 0</tspan></text>
  </g>
</svg>
