<?xml version="1.0" encoding="UTF-8" standalone="no"?>
<!-- Created with Inkscape (http://www.inkscape.org/) -->

<svg
   xmlns:dc="http://purl.org/dc/elements/1.1/"
   xmlns:cc="http://creativecommons.org/ns#"
   xmlns:rdf="http://www.w3.org/1999/02/22-rdf-syntax-ns#"
   xmlns:svg="http://www.w3.org/2000/svg"
   xmlns="http://www.w3.org/2000/svg"
   xmlns:xlink="http://www.w3.org/1999/xlink"
   xmlns:sodipodi="http://sodipodi.sourceforge.net/DTD/sodipodi-0.dtd"
   xmlns:inkscape="http://www.inkscape.org/namespaces/inkscape"
   width="64.78109mm"
   height="38.085907mm"
   viewBox="0 0 64.78109 38.085907"
   version="1.1"
   id="svg18335"
   inkscape:version="0.92.2 5c3e80d, 2017-08-06"
   sodipodi:docname="int-vector.svg">
  <defs
     id="defs18329">
    <marker
       inkscape:isstock="true"
       style="overflow:visible"
       id="marker19775"
       refX="0"
       refY="0"
       orient="auto"
       inkscape:stockid="Arrow1Mend">
      <path
         transform="matrix(-0.4,0,0,-0.4,-4,0)"
         style="fill:#000000;fill-opacity:1;fill-rule:evenodd;stroke:#000000;stroke-width:1.00000003pt;stroke-opacity:1"
         d="M 0,0 5,-5 -12.5,0 5,5 Z"
         id="path19773"
         inkscape:connector-curvature="0" />
    </marker>
    <inkscape:path-effect
       is_visible="true"
       id="path-effect19771"
       effect="spiro" />
    <marker
       inkscape:stockid="Arrow1Mend"
       orient="auto"
       refY="0"
       refX="0"
       id="Arrow1Mend"
       style="overflow:visible"
       inkscape:isstock="true"
       inkscape:collect="always">
      <path
         id="path5634"
         d="M 0,0 5,-5 -12.5,0 5,5 Z"
         style="fill:#000000;fill-opacity:1;fill-rule:evenodd;stroke:#000000;stroke-width:1.00000003pt;stroke-opacity:1"
         transform="matrix(-0.4,0,0,-0.4,-4,0)"
         inkscape:connector-curvature="0" />
    </marker>
    <inkscape:path-effect
       effect="spiro"
       id="path-effect18961"
       is_visible="true" />
    <linearGradient
       id="linearGradient18940"
       inkscape:collect="always">
      <stop
         id="stop18936"
         offset="0"
         style="stop-color:#ffcfc1;stop-opacity:1" />
      <stop
         id="stop18938"
         offset="1"
         style="stop-color:#fdfdfd;stop-opacity:0" />
    </linearGradient>
    <linearGradient
       inkscape:collect="always"
       id="linearGradient18924">
      <stop
         style="stop-color:#9edeff;stop-opacity:1"
         offset="0"
         id="stop18920" />
      <stop
         style="stop-color:#fdfdfd;stop-opacity:0"
         offset="1"
         id="stop18922" />
    </linearGradient>
    <linearGradient
       inkscape:collect="always"
       xlink:href="#linearGradient18924"
       id="linearGradient18926"
       x1="196.1017"
       y1="186.27791"
       x2="196.1017"
       y2="55.96822"
       gradientUnits="userSpaceOnUse" />
    <linearGradient
       inkscape:collect="always"
       xlink:href="#linearGradient18940"
       id="linearGradient18934"
       x1="198.12201"
       y1="183.75447"
       x2="198.12201"
       y2="290.83066"
       gradientUnits="userSpaceOnUse" />
    <clipPath
       clipPathUnits="userSpaceOnUse"
       id="clipPath20024">
      <rect
         style="color:#000000;clip-rule:nonzero;display:inline;overflow:visible;visibility:visible;opacity:1;isolation:auto;mix-blend-mode:normal;color-interpolation:sRGB;color-interpolation-filters:linearRGB;solid-color:#000000;solid-opacity:1;fill:none;fill-opacity:1;fill-rule:evenodd;stroke:none;stroke-width:0.26257491;stroke-linecap:round;stroke-linejoin:miter;stroke-miterlimit:4;stroke-dasharray:none;stroke-dashoffset:0;stroke-opacity:1;paint-order:normal;color-rendering:auto;image-rendering:auto;shape-rendering:auto;text-rendering:auto;enable-background:accumulate"
         id="rect20026"
         width="64.812859"
         height="38.085907"
         x="21.515198"
         y="25.320522" />
    </clipPath>
    <linearGradient
       inkscape:collect="always"
       xlink:href="#linearGradient18924"
       id="linearGradient20028"
       gradientUnits="userSpaceOnUse"
       x1="196.1017"
       y1="186.27791"
       x2="196.1017"
       y2="55.96822" />
  </defs>
  <sodipodi:namedview
     id="base"
     pagecolor="#ffffff"
     bordercolor="#666666"
     borderopacity="1.0"
     inkscape:pageopacity="0.0"
     inkscape:pageshadow="2"
     inkscape:zoom="1.979899"
     inkscape:cx="216.52737"
     inkscape:cy="-26.049372"
     inkscape:document-units="mm"
     inkscape:current-layer="layer1"
     showgrid="false"
     fit-margin-top="0"
     fit-margin-left="0"
     fit-margin-right="0"
     fit-margin-bottom="0"
     inkscape:window-width="2560"
     inkscape:window-height="1315"
     inkscape:window-x="43"
     inkscape:window-y="84"
     inkscape:window-maximized="0" />
  <metadata
     id="metadata18332">
    <rdf:RDF>
      <cc:Work
         rdf:about="">
        <dc:format>image/svg+xml</dc:format>
        <dc:type
           rdf:resource="http://purl.org/dc/dcmitype/StillImage" />
        <dc:title></dc:title>
      </cc:Work>
    </rdf:RDF>
  </metadata>
  <g
     inkscape:label="Layer 1"
     inkscape:groupmode="layer"
     id="layer1"
     transform="translate(-21.546965,-25.320522)">
    <g
       id="g20020"
       clip-path="url(#clipPath20024)">
      <g
         id="g18949">
        <path
           style="color:#000000;clip-rule:nonzero;display:inline;overflow:visible;visibility:visible;opacity:1;isolation:auto;mix-blend-mode:normal;color-interpolation:sRGB;color-interpolation-filters:linearRGB;solid-color:#000000;solid-opacity:1;fill:url(#linearGradient18934);fill-opacity:1;fill-rule:evenodd;stroke:none;stroke-width:1.75748026;stroke-linecap:round;stroke-linejoin:miter;stroke-miterlimit:4;stroke-dasharray:none;stroke-dashoffset:0;stroke-opacity:1;paint-order:normal;color-rendering:auto;image-rendering:auto;shape-rendering:auto;text-rendering:auto;enable-background:accumulate"
           d="m 327.28906,163.74023 c -3.36924,-1.08723 -6.7601,-2.10644 -10.18164,-3.01953 -3.6953,-0.98614 -7.41913,-1.87043 -11.16406,-2.65234 -3.74493,-0.78191 -7.51216,-1.46254 -11.29492,-2.03906 -3.78277,-0.57653 -7.57989,-1.04993 -11.38867,-1.41992 -3.80879,-0.37 -7.62818,-0.63651 -11.45118,-0.79883 -3.823,-0.16232 -7.65115,-0.22034 -11.47656,-0.17383 -3.82541,0.0465 -7.64883,0.1986 -11.46484,0.45508 -3.81601,0.25647 -7.62317,0.61834 -11.41797,1.08593 -3.79481,0.4676 -7.5761,1.04085 -11.33789,1.72071 -3.7618,0.67985 -7.50568,1.46611 -11.22266,2.35937 -3.71698,0.89327 -7.408,1.89218 -11.06836,3 -3.66035,1.10783 -7.28893,2.32296 -10.88086,3.64649 -5.64743,2.08093 -11.2178,4.41583 -16.76757,6.81054 -5.54978,2.39472 -11.07968,4.85104 -16.64454,7.17188 -5.56485,2.32084 -11.16474,4.50789 -16.85742,6.36719 -2.84634,0.92964 -5.71579,1.776 -8.61523,2.51757 -2.89944,0.74158 -5.82829,1.37778 -8.79492,1.88282 -3.94185,0.67106 -7.92033,1.08844 -11.90821,1.25976 -3.98787,0.17133 -7.98645,0.0963 -11.96679,-0.21484 -3.980351,-0.31118 -7.944023,-0.86027 -11.863286,-1.63672 -2.430904,-0.48159 -4.802646,-1.20808 -7.193359,-1.86328 v 99.42969 H 327.28906 Z"
           id="path18918"
           transform="scale(0.26458333)"
           inkscape:connector-curvature="0" />
        <path
           style="color:#000000;clip-rule:nonzero;display:inline;overflow:visible;visibility:visible;opacity:1;isolation:auto;mix-blend-mode:normal;color-interpolation:sRGB;color-interpolation-filters:linearRGB;solid-color:#000000;solid-opacity:1;fill:url(#linearGradient20028);fill-opacity:1;fill-rule:evenodd;stroke:none;stroke-width:1.75748026;stroke-linecap:round;stroke-linejoin:miter;stroke-miterlimit:4;stroke-dasharray:none;stroke-dashoffset:0;stroke-opacity:1;paint-order:normal;color-rendering:auto;image-rendering:auto;shape-rendering:auto;text-rendering:auto;enable-background:accumulate"
           d="M 82.328125,65.394531 V 188.19922 c 2.390713,0.6552 4.762455,1.38169 7.193359,1.86328 3.919263,0.77645 7.882935,1.32554 11.863286,1.63672 3.98034,0.31118 7.97892,0.38617 11.96679,0.21484 3.98788,-0.17132 7.96636,-0.5887 11.90821,-1.25976 2.96663,-0.50504 5.89548,-1.14124 8.79492,-1.88282 2.89944,-0.74157 5.76889,-1.58793 8.61523,-2.51757 5.69268,-1.8593 11.29257,-4.04635 16.85742,-6.36719 5.56486,-2.32084 11.09476,-4.77716 16.64454,-7.17188 5.54977,-2.39471 11.12014,-4.72961 16.76757,-6.81054 3.59193,-1.32353 7.22051,-2.53866 10.88086,-3.64649 3.66036,-1.10782 7.35138,-2.10673 11.06836,-3 3.71698,-0.89326 7.46086,-1.67952 11.22266,-2.35937 3.76179,-0.67986 7.54308,-1.25311 11.33789,-1.72071 3.7948,-0.46759 7.60196,-0.82946 11.41797,-1.08593 3.81601,-0.25648 7.63943,-0.40858 11.46484,-0.45508 3.82541,-0.0465 7.65356,0.0115 11.47656,0.17383 3.823,0.16232 7.64239,0.42883 11.45118,0.79883 3.80878,0.36999 7.6059,0.84339 11.38867,1.41992 3.78276,0.57652 7.54999,1.25715 11.29492,2.03906 3.74493,0.78191 7.46876,1.6662 11.16406,2.65234 3.42154,0.91309 6.8124,1.9323 10.18164,3.01953 V 65.394531 Z"
           id="rect18897"
           transform="scale(0.26458333)"
           inkscape:connector-curvature="0" />
        <path
           id="path18942"
           d="m 86.595229,43.322935 c -0.89144,-0.287663 -1.78861,-0.557329 -2.69389,-0.798917 -0.97771,-0.260916 -1.96298,-0.494885 -2.95382,-0.701765 -0.99085,-0.20688 -1.9876,-0.386964 -2.98845,-0.539501 -1.00086,-0.15254 -2.00551,-0.277794 -3.01325,-0.375687 -1.00774,-0.0979 -2.0183,-0.16841 -3.0298,-0.211357 -1.0115,-0.04295 -2.02436,-0.0583 -3.0365,-0.04599 -1.01215,0.0123 -2.02376,0.05255 -3.03341,0.120407 -1.00966,0.06786 -2.01697,0.163602 -3.021,0.287319 -1.00405,0.123719 -2.00451,0.275391 -2.99982,0.455271 -0.99531,0.179877 -1.98588,0.387908 -2.96933,0.62425 -0.98345,0.236344 -1.96003,0.500639 -2.9285,0.79375 -0.96847,0.293113 -1.92853,0.614616 -2.87889,0.9648 -1.49422,0.55058 -2.96805,1.168355 -4.43642,1.801956 -1.46838,0.633602 -2.9315,1.283504 -4.40387,1.897559 -1.47236,0.614056 -2.954,1.192713 -4.46019,1.684653 -0.75309,0.245967 -1.5123,0.4699 -2.27945,0.666107 -0.76714,0.196209 -1.54206,0.364537 -2.32699,0.498163 -1.04294,0.177551 -2.09558,0.287983 -3.15071,0.333311 -1.05512,0.04533 -2.11308,0.02549 -3.16621,-0.05684 -1.05313,-0.08233 -2.10186,-0.227613 -3.13883,-0.433049 -0.64317,-0.127421 -1.2707,-0.319638 -1.90324,-0.492993"
           style="color:#000000;clip-rule:nonzero;display:inline;overflow:visible;visibility:visible;opacity:1;isolation:auto;mix-blend-mode:normal;color-interpolation:sRGB;color-interpolation-filters:linearRGB;solid-color:#000000;solid-opacity:1;fill:none;fill-opacity:1;fill-rule:evenodd;stroke:#0057ad;stroke-width:0.46499997;stroke-linecap:round;stroke-linejoin:miter;stroke-miterlimit:4;stroke-dasharray:none;stroke-dashoffset:0;stroke-opacity:1;paint-order:normal;color-rendering:auto;image-rendering:auto;shape-rendering:auto;text-rendering:auto;enable-background:accumulate"
           inkscape:connector-curvature="0"
           sodipodi:nodetypes="ccccccccsccccccccccscc" />
      </g>
      <text
         id="text18953"
         y="59.637123"
         x="24.455162"
         style="font-style:normal;font-variant:normal;font-weight:bold;font-stretch:normal;font-size:4.23333311px;line-height:125%;font-family:arial;-inkscape-font-specification:'arial Bold';font-variant-ligatures:normal;font-variant-caps:normal;font-variant-numeric:normal;font-feature-settings:normal;text-align:center;letter-spacing:0px;word-spacing:0px;writing-mode:lr-tb;text-anchor:middle;fill:#000000;fill-opacity:1;stroke:none;stroke-width:0.26458332px;stroke-linecap:butt;stroke-linejoin:miter;stroke-opacity:1"
         xml:space="preserve"><tspan
           style="font-style:normal;font-variant:normal;font-weight:normal;font-stretch:normal;font-family:arial;-inkscape-font-specification:arial;stroke-width:0.26458332px"
           y="59.637123"
           x="24.455162"
           id="tspan18951"
           sodipodi:role="line">A</tspan></text>
      <text
         xml:space="preserve"
         style="font-style:normal;font-variant:normal;font-weight:bold;font-stretch:normal;font-size:4.23333311px;line-height:125%;font-family:arial;-inkscape-font-specification:'arial Bold';font-variant-ligatures:normal;font-variant-caps:normal;font-variant-numeric:normal;font-feature-settings:normal;text-align:center;letter-spacing:0px;word-spacing:0px;writing-mode:lr-tb;text-anchor:middle;fill:#000000;fill-opacity:1;stroke:none;stroke-width:0.26458332px;stroke-linecap:butt;stroke-linejoin:miter;stroke-opacity:1"
         x="24.455162"
         y="45.878784"
         id="text18957"><tspan
           sodipodi:role="line"
           id="tspan18955"
           x="24.455162"
           y="45.878784"
           style="font-style:normal;font-variant:normal;font-weight:normal;font-stretch:normal;font-family:arial;-inkscape-font-specification:arial;stroke-width:0.26458332px">B</tspan></text>
      <path
         sodipodi:nodetypes="cc"
         inkscape:original-d="m 49.845766,44.163026 c 2.49478,-1.158433 6.883196,-1.871037 9.255321,-3.240472"
         inkscape:path-effect="#path-effect18961"
         inkscape:connector-curvature="0"
         id="path18959"
         d="m 49.845766,44.163026 9.255321,-3.240472"
         style="fill:none;fill-rule:evenodd;stroke:#000000;stroke-width:0.26499999;stroke-linecap:butt;stroke-linejoin:miter;stroke-miterlimit:4;stroke-dasharray:none;stroke-opacity:1;marker-end:url(#Arrow1Mend)" />
      <path
         style="fill:none;fill-rule:evenodd;stroke:#000000;stroke-width:0.26499999;stroke-linecap:butt;stroke-linejoin:miter;stroke-miterlimit:4;stroke-dasharray:none;stroke-opacity:1;marker-end:url(#marker19775)"
         d="M 49.845766,44.163026 47.207593,37.782137"
         id="path19769"
         inkscape:connector-curvature="0"
         inkscape:path-effect="#path-effect19771"
         inkscape:original-d="m 49.845766,44.163026 c 2.49478,-1.158433 -5.010298,-5.011454 -2.638173,-6.380889"
         sodipodi:nodetypes="cc" />
      <text
         id="text19995"
         y="36.278572"
         x="47.306705"
         style="font-style:normal;font-variant:normal;font-weight:bold;font-stretch:normal;font-size:4.23333311px;line-height:125%;font-family:arial;-inkscape-font-specification:'arial Bold';font-variant-ligatures:normal;font-variant-caps:normal;font-variant-numeric:normal;font-feature-settings:normal;text-align:center;letter-spacing:0px;word-spacing:0px;writing-mode:lr-tb;text-anchor:middle;fill:#000000;fill-opacity:1;stroke:none;stroke-width:0.26458332px;stroke-linecap:butt;stroke-linejoin:miter;stroke-opacity:1"
         xml:space="preserve"><tspan
           style="font-style:italic;font-variant:normal;font-weight:bold;font-stretch:normal;font-family:arial;-inkscape-font-specification:'arial Bold Italic';stroke-width:0.26458332px"
           y="36.278572"
           x="47.306705"
           id="tspan19993"
           sodipodi:role="line">n</tspan></text>
      <text
         xml:space="preserve"
         style="font-style:normal;font-variant:normal;font-weight:bold;font-stretch:normal;font-size:4.23333311px;line-height:125%;font-family:arial;-inkscape-font-specification:'arial Bold';font-variant-ligatures:normal;font-variant-caps:normal;font-variant-numeric:normal;font-feature-settings:normal;text-align:center;letter-spacing:0px;word-spacing:0px;writing-mode:lr-tb;text-anchor:middle;fill:#000000;fill-opacity:1;stroke:none;stroke-width:0.26458332px;stroke-linecap:butt;stroke-linejoin:miter;stroke-opacity:1"
         x="60.670181"
         y="40.554886"
         id="text19999"><tspan
           sodipodi:role="line"
           id="tspan19997"
           x="60.670181"
           y="40.554886"
           style="font-style:italic;font-variant:normal;font-weight:bold;font-stretch:normal;font-family:arial;-inkscape-font-specification:'arial Bold Italic';stroke-width:0.26458332px">t</tspan></text>
    </g>
  </g>
</svg>
